<svg xmlns="http://www.w3.org/2000/svg" viewBox="0 0 45.77 35"><title>logo-black</title><g id="Layer_2" data-name="Layer 2"><g id="Layer_1-2" data-name="Layer 1"><path id="noun_cloth_2129414" data-name="noun cloth 2129414" d="M21.58,35a1.34,1.34,0,0,1-1.3-.87L17,25.58H2.69A2.69,2.69,0,0,1,0,22.89H0V2.69A2.69,2.69,0,0,1,2.69,0H21.54a1.35,1.35,0,0,1,1.22.77l4.07,8.65H43.08a2.69,2.69,0,0,1,2.69,2.69h0V32.31A2.69,2.69,0,0,1,43.08,35H21.58ZM20.68,2.69H2.7V22.88H30.19Zm7.41,9.42,5.43,11.54a1.35,1.35,0,0,1-.33,1.59l-8.07,7.06h18V12.12Zm-6,19.25,6.62-5.79H19.9Z"/></g></g></svg>